<svg width="236" height="52" viewBox="0 0 236 52" fill="none" xmlns="http://www.w3.org/2000/svg">
<g clip-path="url(#clip0_2_26)">
<path d="M144.394 15.9899H140.311V35.9443H144.394V15.9899Z" fill="#2F2E8C"/>
<path d="M173.367 15.9899H169.283V35.9443H173.367V15.9899Z" fill="#2F2E8C"/>
<path d="M70.2255 36.2282C67.4025 36.2282 64.9757 35.2082 63.0042 33.1993C61.0328 31.1936 60.0346 28.748 60.0346 25.9313C60.0346 23.1145 61.0328 20.6752 63.0042 18.6788C64.9757 16.6824 67.4056 15.6686 70.2255 15.6686C73.0454 15.6686 75.4816 16.6855 77.4655 18.6944C79.4463 20.7032 80.4538 23.1363 80.4538 25.9281C80.4538 28.7199 79.4494 31.1936 77.4655 33.1993C75.4816 35.2082 73.0454 36.2282 70.2255 36.2282ZM70.2255 19.5023C68.4787 19.5023 66.9814 20.1324 65.7711 21.377C64.5577 22.6247 63.94 24.1563 63.94 25.9281C63.94 27.6999 64.5545 29.2627 65.768 30.498C66.9783 31.7301 68.4787 32.3571 70.2255 32.3571C71.9723 32.3571 73.5039 31.727 74.7142 30.4824C75.9277 29.2346 76.5453 27.703 76.5453 25.9281C76.5453 24.1532 75.9245 22.6247 74.6986 21.377C73.4759 20.1324 71.9692 19.5023 70.2255 19.5023Z" fill="#2F2E8C"/>
<path d="M109.367 35.9412V24.7864C109.367 23.0864 108.996 21.7575 108.269 20.8342C107.561 19.9358 106.597 19.4991 105.331 19.4991C103.893 19.4991 102.804 19.9826 101.996 20.9777C101.173 21.9977 100.73 23.2735 100.686 24.7615V35.9349H96.5996V24.7802C96.5996 23.0801 96.2252 21.7513 95.486 20.8311C94.7623 19.9296 93.8078 19.496 92.5631 19.496C91.0596 19.496 89.9366 20.0169 89.1319 21.0869C88.3021 22.188 87.881 23.5511 87.881 25.1389V35.9381H83.7978V15.9836H87.881V17.9457C88.3083 17.4684 88.8012 17.0473 89.3502 16.6917C90.4077 16.0086 91.6679 15.6623 93.0965 15.6623C94.5252 15.6623 95.9195 16.0585 97.0955 16.8383C97.997 17.4341 98.7363 18.2483 99.2916 19.2558C99.8967 18.2795 100.689 17.4778 101.659 16.8664C102.929 16.0678 104.342 15.6623 105.864 15.6623C107.973 15.6623 109.785 16.4172 111.248 17.9051C112.711 19.3931 113.45 21.43 113.45 23.9629V35.9381H109.364L109.367 35.9412Z" fill="#2F2E8C"/>
<path d="M131.882 35.9412V24.8956C131.882 23.1769 131.402 21.8387 130.457 20.9247C129.505 20.0076 128.314 19.5397 126.92 19.5397C125.329 19.5397 124.05 20.1043 123.017 21.271C121.982 22.4376 121.458 23.9473 121.458 25.7534V35.9443H117.371V15.9899H121.458V18.2078C121.985 17.6463 122.602 17.1534 123.298 16.7417C124.496 16.0305 125.893 15.6686 127.456 15.6686C129.768 15.6686 131.779 16.4266 133.442 17.927C135.12 19.4399 135.972 21.4737 135.972 23.9723V35.9475H131.886L131.882 35.9412Z" fill="#2F2E8C"/>
<path d="M157.115 36.2282C154.286 36.2282 151.466 35.2986 148.727 33.4644L148.493 33.3085V28.3799L149.398 29.3095C150.252 30.186 151.381 30.9534 152.754 31.5866C154.117 32.2167 155.571 32.5349 157.081 32.5349C158.347 32.5349 159.342 32.2916 160.044 31.8081C160.699 31.3589 160.992 30.8567 160.977 30.2234C160.977 29.6838 160.677 29.2502 160.031 28.8572C159.289 28.4049 157.948 27.9619 156.042 27.5502C153.537 27.0168 151.65 26.3149 150.433 25.4696C149.123 24.5618 148.459 23.2891 148.459 21.6858C148.459 19.8173 149.295 18.32 150.942 17.2345C152.52 16.1926 154.37 15.6655 156.438 15.6655C158.946 15.6655 161.494 16.411 164.015 17.8771L164.277 18.0299V22.2941L163.466 21.7731C160.973 20.1729 158.609 19.3619 156.441 19.3619C155.352 19.3619 154.385 19.6021 153.568 20.0762C152.823 20.5067 152.476 21.0214 152.476 21.6889C152.476 22.2566 152.773 22.6528 153.409 22.9367C154.201 23.2891 155.702 23.6915 157.863 24.1314C160.371 24.6461 162.187 25.4041 163.266 26.3804C164.386 27.3973 164.954 28.6731 164.954 30.1767C164.954 32.1075 164.183 33.6298 162.661 34.6903C161.198 35.7135 159.333 36.2313 157.118 36.2313" fill="#2F2E8C"/>
<path d="M215.422 35.9412V24.8956C215.422 23.1769 214.941 21.8387 213.996 20.9247C213.045 20.0076 211.853 19.5397 210.459 19.5397C208.868 19.5397 207.589 20.1043 206.556 21.271C205.521 22.4376 204.994 23.9442 204.994 25.7534V35.9443H200.91V15.9899H204.994V18.2078C205.524 17.6463 206.142 17.1534 206.837 16.7417C208.032 16.0305 209.432 15.6686 210.995 15.6686C213.307 15.6686 215.319 16.4266 216.981 17.927C218.659 19.4399 219.508 21.4737 219.508 23.9723V35.9475H215.425L215.422 35.9412Z" fill="#2F2E8C"/>
<path d="M142.354 13.4726C141.643 13.4726 141.028 13.2261 140.529 12.7426C140.027 12.256 139.774 11.6478 139.774 10.9334C139.774 10.2191 140.03 9.60771 140.529 9.10549C141.028 8.6064 141.643 8.35373 142.357 8.35373C143.072 8.35373 143.683 8.6064 144.185 9.10549C144.684 9.60459 144.937 10.2191 144.937 10.9334C144.937 11.6478 144.684 12.256 144.182 12.7426C143.683 13.2261 143.068 13.4726 142.357 13.4726" fill="#2F2E8C"/>
<path d="M171.327 13.4726C170.615 13.4726 169.998 13.2261 169.502 12.7426C169.003 12.256 168.747 11.6478 168.747 10.9334C168.747 10.2191 169.003 9.60771 169.502 9.10549C170.001 8.6064 170.615 8.35373 171.33 8.35373C172.044 8.35373 172.655 8.6064 173.158 9.10549C173.657 9.60459 173.909 10.2191 173.909 10.9334C173.909 11.6478 173.657 12.256 173.154 12.7426C172.655 13.2261 172.041 13.4726 171.33 13.4726" fill="#2F2E8C"/>
<path d="M232.438 36.2438C227.615 36.2438 223.691 32.3197 223.691 27.494V10.6901H227.759V15.9712H232.943V19.6395H227.784V27.494C227.784 30.0644 229.874 32.1543 232.444 32.1543H235.289V36.2438H232.444H232.438Z" fill="#2F2E8C"/>
<path d="M187.585 36.2282C184.74 36.2282 182.297 35.2082 180.326 33.1993C178.358 31.1936 177.359 28.7449 177.359 25.9313C177.359 23.1176 178.364 20.644 180.348 18.6569C182.332 16.673 184.768 15.6686 187.585 15.6686C190.401 15.6686 193.196 16.8976 195.099 19.0437C197.077 21.271 198 24.303 197.632 27.3661L197.61 27.5627H181.517C181.758 28.9133 182.391 30.0425 183.398 30.916C184.556 31.9204 185.959 32.4257 187.581 32.4257C188.704 32.4257 189.774 32.1699 190.763 31.6646C191.752 31.1593 192.563 30.4699 193.178 29.6152L193.383 29.3282L197.117 30.2016L196.824 30.7974C196.019 32.432 194.743 33.7608 193.031 34.7496C191.328 35.7291 189.494 36.2282 187.578 36.2282M193.474 24.1189C193.193 22.893 192.56 21.8293 191.593 20.9528C190.473 19.9421 189.11 19.4305 187.541 19.4305C185.972 19.4305 184.559 19.9452 183.414 20.9559C182.428 21.8293 181.795 22.893 181.53 24.1189H193.474Z" fill="#2F2E8C"/>
<path d="M34.0255 43.0814C31.8326 43.0814 30.0546 44.8594 30.0546 47.0523C30.0546 49.2452 31.8326 51.0232 34.0255 51.0232C36.2184 51.0232 37.9965 49.2452 37.9965 47.0523C37.9965 44.8594 36.2184 43.0814 34.0255 43.0814Z" fill="#1678D1"/>
<path d="M29.203 29.7712C31.2836 27.6906 31.2836 24.3154 29.203 22.2317C27.1224 20.1511 23.7473 20.1511 21.6636 22.2317C19.583 24.3123 19.583 27.6874 21.6636 29.7712C23.7442 31.8518 27.1193 31.8518 29.203 29.7712Z" fill="#1678D1"/>
<path d="M14.1054 44.2449C12.5551 45.7952 12.5551 48.3125 14.1054 49.8628C15.6557 51.4131 18.173 51.4131 19.7233 49.8628C21.2736 48.3094 21.2736 45.7952 19.7233 44.2449C18.1699 42.6946 15.6557 42.6946 14.1054 44.2449Z" fill="#1678D1"/>
<path d="M26.0431 13.0483C27.0756 12.8331 27.921 12.0158 28.1643 10.9896C28.2859 10.478 28.2641 9.98514 28.1331 9.53595C28.0738 9.33319 28.1674 9.11796 28.3483 9.0119L30.5163 7.70801C30.7409 7.58324 31.0372 7.60195 31.2212 7.75792C31.2212 7.75792 31.2275 7.75792 31.2306 7.75792C31.268 7.80159 31.2992 7.84526 31.3398 7.88582C32.9026 9.44861 35.4511 9.43613 36.9983 7.84527C38.4706 6.33238 38.4706 3.81819 36.9983 2.30843C35.4511 0.717566 32.9057 0.701968 31.3398 2.26788C30.2106 3.39708 29.908 5.03474 30.4227 6.44156C30.5007 6.65056 30.4071 6.88451 30.2137 6.9968L27.9522 8.35684C27.7712 8.46913 27.5342 8.44106 27.3813 8.29445C27.06 7.98252 26.6576 7.7548 26.2178 7.62691C26.2178 7.62379 26.2178 7.61755 26.2116 7.61443C25.9932 7.52085 25.8404 7.30874 25.8279 7.05919V4.60115C25.8404 4.3516 25.9932 4.13637 26.2116 4.04591C26.2116 4.04591 26.2116 4.03967 26.2116 4.03655C26.9509 3.6903 27.425 2.86991 27.2222 1.96218C27.0756 1.30088 26.536 0.758116 25.8747 0.608387C24.68 0.333885 23.6163 1.23538 23.6163 2.38641C23.6163 3.11634 24.0499 3.74021 24.6675 4.03343C24.6675 4.03655 24.6675 4.04279 24.6706 4.04591C24.8952 4.1426 25.0512 4.36096 25.0574 4.61986V7.03735C25.0543 7.29626 24.8952 7.51773 24.6706 7.61443C24.6675 7.61443 24.6644 7.62379 24.6644 7.63003C23.4977 7.96692 22.6431 9.03373 22.6431 10.3095C22.6431 12.0501 24.2339 13.4195 26.04 13.0452" fill="#1678D1"/>
<path d="M25.4442 47.7853C24.4336 47.7853 23.6163 48.6026 23.6163 49.6133C23.6163 50.6239 24.4336 51.4412 25.4442 51.4412C26.4549 51.4412 27.2722 50.6239 27.2722 49.6133C27.2722 48.6026 26.4549 47.7853 25.4442 47.7853Z" fill="#1678D1"/>
<path d="M41.774 28.7293C42.8346 28.4953 43.6737 27.6188 43.8795 26.5551C44.0667 25.5787 43.7454 24.6741 43.134 24.0471C42.9843 23.8943 42.9593 23.6603 43.0685 23.4794L44.4098 21.2054C44.5284 21.0058 44.7748 20.9153 44.99 21.0058C45.4486 21.1898 45.9477 21.2959 46.4717 21.2959C46.4779 21.2959 46.4811 21.2959 46.4873 21.2959C46.4935 21.2959 46.4967 21.2959 46.5029 21.2959C46.5809 21.2959 46.6589 21.2896 46.7337 21.2834C46.7337 21.2834 46.7337 21.2896 46.7369 21.2896C46.9708 21.324 47.1704 21.4893 47.2484 21.7263L47.9939 23.9941C47.9939 23.9941 47.9939 23.9972 47.9939 24.0003C48.0782 24.2499 47.9971 24.515 47.813 24.6804C47.3576 25.1077 47.1143 25.7565 47.289 26.4615C47.4481 27.1072 47.9721 27.6281 48.6209 27.7779C49.8219 28.0555 50.8887 27.154 50.8887 26.003C50.8887 25.0672 50.1837 24.3029 49.276 24.1969V24.1937C49.0514 24.1782 48.8486 24.0347 48.7488 23.8194L48.0033 21.5392C47.9503 21.2928 48.0439 21.0463 48.2341 20.8997C50.1213 19.9889 51.1819 17.6369 49.9654 15.2662C49.3134 13.9997 47.9347 13.276 46.5123 13.3478H46.4967H46.4811C45.068 13.276 43.6955 13.9873 43.0404 15.2412C42.0516 17.1378 42.5289 19.0312 43.7267 20.1792C43.8827 20.3289 43.9014 20.5691 43.7922 20.7562L42.4166 23.0864C42.3105 23.2673 42.0953 23.3609 41.8925 23.3079C41.5275 23.2049 41.1314 23.1737 40.7228 23.233C39.5031 23.4108 38.5174 24.4183 38.3614 25.6411C38.1212 27.5626 39.8306 29.1629 41.7802 28.7293" fill="#1678D1"/>
<path d="M7.45808 41.4063C6.74375 42.1206 6.74375 43.2748 7.45808 43.9891C8.17241 44.7034 9.32969 44.7034 10.0409 43.9891C10.7552 43.2779 10.7552 42.1206 10.0409 41.4063C9.32969 40.692 8.17241 40.692 7.45808 41.4063Z" fill="#1678D1"/>
<path d="M16.3295 39.073C17.4212 37.9812 17.4212 36.2094 16.3295 35.1146C15.2377 34.0197 13.4659 34.0228 12.371 35.1146C11.2793 36.2063 11.2793 37.9781 12.371 39.073C13.4628 40.1648 15.2346 40.1648 16.3295 39.073Z" fill="#1678D1"/>
<path d="M41.4121 41.0226C41.2374 41.0975 41.0378 41.0507 40.9037 40.9166L39.0352 39.0481C38.8886 38.9015 38.8418 38.6738 38.9478 38.4928C39.5904 37.3948 39.4282 35.9537 38.4394 35.0397C37.357 34.0353 35.5977 34.0696 34.5558 35.1177C33.9195 35.7572 33.6637 36.6243 33.7729 37.4541C33.8009 37.6631 33.6762 37.8627 33.4828 37.9438L28.2111 40.1274C28.0177 40.2085 27.79 40.1554 27.6621 39.987C27.0444 39.1822 26.0057 38.7237 24.8734 38.9451C23.7722 39.1635 22.8895 40.0681 22.6898 41.1724C22.3436 43.1032 23.9844 44.7596 25.909 44.4508C26.7606 44.3135 27.4999 43.7427 27.9054 42.9785C28.2173 42.3951 28.2859 41.8399 28.2142 41.3314C28.1861 41.1193 28.3078 40.9166 28.5043 40.8355L33.7666 38.655C33.9694 38.5708 34.2002 38.6394 34.3312 38.8141C34.3967 38.9046 34.4716 38.9919 34.5558 39.073C35.4729 39.9901 36.8579 40.1274 37.9278 39.5066C38.1087 39.4006 38.3427 39.4411 38.4893 39.5877L40.3578 41.4562C40.4888 41.5872 40.5418 41.79 40.467 41.9615C40.1207 42.7507 40.3547 43.7302 41.1782 44.2511C41.774 44.6317 42.5725 44.613 43.1558 44.2137C44.1353 43.5431 44.2258 42.1986 43.4303 41.4032C42.8845 40.8573 42.0797 40.7294 41.409 41.0195" fill="#1678D1"/>
<path d="M8.45315 35.6168C8.74013 34.1226 8.18177 32.7439 7.18046 31.8611C7.01202 31.7145 6.98394 31.465 7.09624 31.2747L8.37517 29.1036C8.59041 28.7355 8.80564 28.6419 9.00528 28.7012C9.42951 28.8197 9.89741 28.8385 10.3809 28.7324C11.4384 28.5016 12.2837 27.6406 12.4958 26.5832C12.7235 25.4477 12.2619 24.4028 11.4571 23.7851C11.2918 23.6572 11.2356 23.4295 11.3167 23.2361L13.5003 17.9644C13.5814 17.771 13.781 17.6463 13.99 17.6743C14.8197 17.7866 15.69 17.5308 16.3264 16.8914C17.3308 15.8901 17.3682 14.0465 16.4044 13.0078C15.4873 12.0221 14.0524 11.8599 12.9512 12.4993C12.7734 12.6054 12.5426 12.5586 12.396 12.412L10.5306 10.5435C10.3996 10.4125 10.3466 10.2097 10.4215 10.0413C10.7677 9.25523 10.5306 8.27263 9.71025 7.7517C9.11134 7.37114 8.31278 7.38986 7.72947 7.78913C6.75311 8.45979 6.66265 9.80423 7.45497 10.5997C8.00085 11.1455 8.80564 11.2734 9.4763 10.9833C9.65098 10.9085 9.85374 10.9553 9.98787 11.0894L11.8564 12.9579C12.0061 13.1076 12.0435 13.3384 11.9375 13.5194C11.3198 14.5893 11.4571 15.9743 12.371 16.8914C12.4522 16.9725 12.5426 17.0473 12.63 17.116C12.8078 17.247 12.8733 17.4778 12.789 17.6806L10.6086 22.9429C10.5275 23.1425 10.3185 23.258 10.1064 23.233C9.99099 23.2174 9.87558 23.208 9.75704 23.208C9.48254 23.208 9.22051 23.2486 8.96785 23.3203C8.76509 23.3796 8.54985 23.2892 8.43756 23.1082L6.93403 20.6408C7.08376 20.5285 7.22725 20.41 7.36138 20.2759C8.92729 18.71 8.9117 16.1646 7.32083 14.6174C5.80795 13.1482 3.29688 13.1482 1.784 14.6174C0.193132 16.1646 0.177534 18.71 1.74344 20.2759C2.87577 21.4113 4.5259 21.7108 5.93584 21.1867C6.14484 21.1087 6.37879 21.2023 6.49421 21.3926L7.78249 23.5106C7.89167 23.6884 7.87608 23.9224 7.72947 24.0752C7.40817 24.4121 7.1711 24.827 7.04945 25.2886C6.99642 25.4914 6.80302 25.6255 6.59403 25.6255H3.9613C3.7679 25.6255 3.59633 25.5132 3.52459 25.3354C3.20642 24.54 2.35172 24.0191 1.40344 24.2312C0.739017 24.3809 0.199369 24.9174 0.0496409 25.5788C-0.224861 26.7766 0.67663 27.8372 1.82767 27.8372C2.59503 27.8372 3.25009 27.363 3.52147 26.6924C3.59634 26.5114 3.7679 26.3929 3.9613 26.3929H6.59715C6.80926 26.3929 6.99954 26.5333 7.05257 26.7391C7.17734 27.207 7.42377 27.6282 7.75442 27.9682C7.90415 28.121 7.9291 28.355 7.81993 28.5359L6.43182 30.8941C6.31952 31.0875 6.08245 31.178 5.87034 31.1031C5.2028 30.866 4.45415 30.7974 3.6712 30.9721C2.13024 31.3121 0.90746 32.5817 0.639197 34.1351C0.155698 36.9113 2.55759 39.2789 5.34005 38.7455C6.89972 38.446 8.15058 37.1858 8.44692 35.6293" fill="#1678D1"/>
<path d="M43.6955 31.886C42.1452 33.4363 42.1452 35.9537 43.6955 37.504C45.2458 39.0543 47.7631 39.0543 49.3134 37.504C50.8638 35.9505 50.8638 33.4363 49.3134 31.886C47.76 30.3357 45.2458 30.3357 43.6955 31.886Z" fill="#1678D1"/>
<path d="M19.7233 7.96381C21.2736 6.4135 21.2736 3.89619 19.7233 2.34587C18.173 0.795558 15.6557 0.795558 14.1054 2.34587C12.5551 3.8993 12.5551 6.4135 14.1054 7.96381C15.6588 9.51412 18.173 9.51412 19.7233 7.96381Z" fill="#1678D1"/>
</g>
<defs>
<clipPath id="clip0_2_26">
<rect width="235.289" height="50.8825" fill="white" transform="translate(0 0.558746)"/>
</clipPath>
</defs>
</svg>
